<?xml version="1.0" encoding="utf-8" ?>
<svg xmlns="http://www.w3.org/2000/svg" xmlns:xlink="http://www.w3.org/1999/xlink" width="1024" height="1024">
	<path fill="#AC0741" d="M0 0L1024 0L1024 1024L0 1024L0 0Z"/>
	<path fill="#CEC8D5" d="M775.01 896.349C777.997 897.916 788.446 898.439 792.545 899.125C804.623 901.146 818.759 903.823 829.75 909.213C833.104 910.858 835.468 912.735 836.705 916.317C836.648 917.203 836.61 917.912 836.092 918.678C833.093 923.113 823.186 926.038 818.294 927.53C800.565 932.938 781.962 935.603 763.652 938.205Q710.653 945.577 657.208 948.199Q589.51 952.671 521.667 953.073Q453.823 953.474 386.077 949.805C348.675 947.861 311.437 945.447 274.26 940.816C253.55 938.236 212.137 933.331 193.919 923.517C191.679 922.31 188.431 920.435 187.931 917.692C187.733 916.606 188.085 915.582 188.677 914.678C196.29 903.059 237.265 898.531 250.958 895.651C263.376 906.417 277.25 914.111 293.71 916.592C301.982 917.839 310.414 917.572 318.755 917.565L348.847 917.515L461.479 917.114L630.425 917.245L693.261 917.518C704.59 917.54 716.228 918.069 727.52 917.241C745.825 915.9 761.664 908.908 775.01 896.349Z"/>
	<path fill="#950026" d="M358.51 212.655C376.861 168.726 407.227 136.197 451.766 117.915C491.45 101.625 537.292 102.928 576.729 119.314Q578.546 120.072 580.344 120.875Q582.142 121.677 583.92 122.523Q585.698 123.37 587.455 124.259Q589.212 125.149 590.946 126.082Q592.68 127.014 594.391 127.989Q596.102 128.964 597.788 129.98Q599.475 130.996 601.136 132.054Q602.797 133.111 604.431 134.209Q606.066 135.307 607.673 136.445Q609.28 137.583 610.859 138.759Q612.438 139.936 613.987 141.151Q615.536 142.366 617.056 143.619Q618.575 144.872 620.063 146.161Q621.551 147.451 623.006 148.777Q624.462 150.103 625.885 151.464Q627.308 152.825 628.697 154.22Q630.086 155.616 631.441 157.045Q632.795 158.474 634.114 159.936Q635.433 161.398 636.716 162.892Q637.999 164.386 639.244 165.911Q640.49 167.436 641.698 168.991Q642.906 170.546 644.075 172.13Q645.245 173.715 646.375 175.327Q647.505 176.939 648.595 178.579Q649.686 180.219 650.735 181.885Q651.785 183.55 652.794 185.242Q653.802 186.933 654.769 188.648Q655.736 190.363 656.661 192.102Q657.585 193.841 658.466 195.601Q659.348 197.362 660.186 199.144Q661.024 200.926 661.818 202.727Q662.612 204.529 663.362 206.35Q664.84 209.974 666.144 213.664Q667.81 213.172 669.488 212.721Q671.165 212.27 672.854 211.861Q674.542 211.452 676.24 211.084Q677.938 210.717 679.645 210.392Q681.351 210.067 683.065 209.785Q684.78 209.502 686.5 209.262Q688.221 209.022 689.947 208.825Q691.673 208.628 693.403 208.474Q695.134 208.319 696.867 208.208Q698.601 208.096 700.337 208.028Q702.073 207.96 703.81 207.934Q705.547 207.909 707.284 207.927Q709.021 207.944 710.757 208.005Q712.494 208.066 714.228 208.17Q715.962 208.273 717.693 208.42Q719.424 208.567 721.151 208.757Q722.878 208.946 724.599 209.179Q726.321 209.411 728.036 209.686Q729.752 209.961 731.46 210.278Q733.168 210.596 734.867 210.956Q736.567 211.315 738.257 211.717Q739.947 212.119 741.627 212.562Q743.307 213.006 744.975 213.491Q746.643 213.976 748.299 214.502Q749.954 215.028 751.596 215.595Q753.238 216.162 754.866 216.77Q756.493 217.377 758.105 218.025Q759.717 218.673 761.313 219.361Q762.908 220.048 764.486 220.775Q766.064 221.502 767.623 222.268Q769.183 223.033 770.723 223.838Q772.262 224.642 773.782 225.484Q775.337 226.328 776.871 227.211Q778.405 228.094 779.916 229.014Q781.427 229.934 782.916 230.892Q784.404 231.849 785.868 232.843Q787.332 233.837 788.771 234.867Q790.21 235.897 791.623 236.962Q793.037 238.027 794.423 239.127Q795.809 240.226 797.168 241.36Q798.527 242.494 799.857 243.661Q801.188 244.828 802.489 246.027Q803.79 247.227 805.061 248.458Q806.332 249.689 807.572 250.951Q808.812 252.214 810.021 253.506Q811.229 254.799 812.406 256.121Q813.582 257.443 814.725 258.794Q815.868 260.145 816.978 261.523Q818.087 262.902 819.162 264.307Q820.237 265.713 821.277 267.145Q822.317 268.577 823.321 270.034Q824.325 271.491 825.293 272.972Q826.261 274.454 827.192 275.959Q828.123 277.464 829.017 278.991Q829.91 280.519 830.765 282.068Q831.621 283.617 832.438 285.187Q833.255 286.756 834.032 288.346Q834.81 289.935 835.548 291.544Q836.286 293.152 836.985 294.778Q837.683 296.404 838.341 298.047Q838.999 299.69 839.616 301.348Q840.233 303.007 840.808 304.68Q841.384 306.353 841.918 308.04Q842.453 309.727 842.945 311.427C853.628 348.85 850.071 389.3 830.988 423.494Q830.111 425.037 829.196 426.557Q828.281 428.078 827.33 429.576Q826.379 431.075 825.391 432.549Q824.404 434.024 823.38 435.474Q822.357 436.924 821.299 438.349Q820.241 439.774 819.149 441.172Q818.056 442.571 816.93 443.943Q815.804 445.314 814.645 446.658Q813.486 448.002 812.294 449.317Q811.103 450.632 809.88 451.918Q808.657 453.204 807.403 454.46Q806.149 455.716 804.865 456.941Q803.58 458.165 802.267 459.359Q800.953 460.552 799.611 461.713Q798.268 462.874 796.898 464.002Q795.528 465.13 794.131 466.224Q792.734 467.319 791.311 468.379Q789.887 469.439 788.438 470.464Q786.99 471.489 785.517 472.478Q784.043 473.468 782.547 474.421Q781.05 475.375 779.53 476.291Q778.011 477.208 776.469 478.088Q774.928 478.967 773.365 479.809Q771.803 480.65 770.221 481.454Q768.638 482.257 767.037 483.022Q765.435 483.787 763.816 484.512Q762.196 485.238 760.559 485.924Q758.922 486.61 757.269 487.256Q755.616 487.902 753.948 488.507Q752.28 489.113 750.598 489.678Q748.915 490.242 747.22 490.766Q745.524 491.29 743.816 491.772C732.306 494.975 720.729 496.289 708.846 497.046L703.354 539.314C702.344 547.448 701.727 555.741 700.358 563.815C726.053 582.208 744.214 614.542 749.277 645.457C751.277 657.669 751.033 670.012 750.997 682.338L750.861 718.89L750.724 837.969C759.067 837.919 778.76 836.608 785.969 837.879C788.43 838.313 790.773 839.352 792.608 841.073C795.234 843.536 796.177 846.889 796.215 850.401C796.406 867.737 786.492 884.162 775.01 896.349C761.664 908.908 745.825 915.9 727.52 917.241C716.228 918.069 704.59 917.54 693.261 917.518L630.425 917.245L461.479 917.114L348.847 917.515L318.755 917.565C310.414 917.572 301.982 917.839 293.71 916.592C277.25 914.111 263.376 906.417 250.958 895.651C239.661 884.699 228.795 866.775 228.752 850.547C228.743 847.178 229.724 843.882 232.239 841.526C234.168 839.72 236.636 838.785 239.193 838.287C246.934 836.779 265.334 837.977 274.472 837.722L274.387 702.986C274.512 680.246 272.072 656.81 277.217 634.479Q277.642 632.57 278.133 630.677Q278.624 628.784 279.181 626.909Q279.738 625.034 280.361 623.18Q280.983 621.326 281.669 619.495Q282.356 617.663 283.106 615.857Q283.856 614.051 284.669 612.272Q285.482 610.493 286.356 608.744Q287.23 606.994 288.165 605.276Q289.1 603.558 290.095 601.874Q291.089 600.19 292.142 598.542Q293.194 596.893 294.304 595.283Q295.414 593.672 296.579 592.102Q297.744 590.531 298.963 589.001Q300.182 587.472 301.454 585.987Q302.726 584.501 304.049 583.061Q305.372 581.62 306.745 580.227C312.023 574.923 317.927 570.651 324.284 566.737C320.585 543.223 317.953 519.549 314.842 495.954C273.348 493.968 237.766 479.377 209.444 448.206Q208.284 446.911 207.157 445.587Q206.029 444.264 204.934 442.913Q203.84 441.562 202.778 440.184Q201.717 438.807 200.69 437.404Q199.664 436.001 198.671 434.573Q197.679 433.145 196.723 431.693Q195.766 430.241 194.845 428.766Q193.925 427.291 193.041 425.794Q192.157 424.297 191.31 422.778Q190.463 421.26 189.653 419.721Q188.844 418.182 188.073 416.623Q187.302 415.065 186.569 413.488Q185.836 411.911 185.143 410.317Q184.449 408.723 183.795 407.112Q183.141 405.501 182.526 403.874Q181.912 402.247 181.338 400.606Q180.764 398.965 180.23 397.31Q179.697 395.655 179.204 393.988Q178.711 392.32 178.26 390.641Q177.808 388.962 177.398 387.272Q176.988 385.583 176.62 383.883Q176.251 382.184 175.925 380.476Q175.598 378.768 175.314 377.053Q175.03 375.338 174.788 373.616Q174.546 371.894 174.346 370.167Q174.146 368.44 173.989 366.708Q173.832 364.976 173.718 363.241Q173.604 361.506 173.532 359.769Q173.46 358.032 173.431 356.293Q173.402 354.555 173.416 352.816Q173.43 351.078 173.487 349.34Q173.544 347.602 173.643 345.866Q173.744 344.083 173.889 342.304Q174.034 340.524 174.222 338.748Q174.411 336.973 174.643 335.202Q174.876 333.432 175.152 331.668Q175.427 329.903 175.747 328.146Q176.066 326.39 176.428 324.641Q176.79 322.893 177.196 321.154Q177.601 319.415 178.049 317.686Q178.497 315.958 178.987 314.241Q179.478 312.524 180.01 310.819Q180.543 309.115 181.117 307.424Q181.692 305.734 182.307 304.057Q182.923 302.381 183.58 300.721Q184.237 299.061 184.934 297.417Q185.632 295.773 186.37 294.147Q187.107 292.521 187.885 290.914Q188.663 289.306 189.48 287.718Q190.297 286.131 191.152 284.564Q192.008 282.996 192.902 281.451Q193.796 279.905 194.728 278.382Q195.66 276.859 196.629 275.359Q197.598 273.859 198.604 272.384Q199.61 270.908 200.652 269.458Q201.693 268.008 202.771 266.584Q203.848 265.16 204.96 263.763Q206.072 262.365 207.218 260.996Q208.364 259.627 209.543 258.286Q210.722 256.945 211.934 255.634Q213.146 254.323 214.39 253.042Q215.634 251.76 216.909 250.51Q218.184 249.26 219.49 248.042Q220.795 246.824 222.13 245.638C250.354 220.346 289.017 205.55 327.07 207.718Q335.027 208.223 342.904 209.459Q350.781 210.696 358.51 212.655Z"/>
	<path fill="#EBF2FA" d="M243.244 851.57L250.532 851.505C250.583 863.579 257.496 875.471 265.875 883.814Q267.8 885.705 269.864 887.444Q271.927 889.183 274.117 890.76Q276.307 892.337 278.61 893.743Q280.913 895.15 283.316 896.377C285.774 897.637 297.063 901.325 297.897 902.619C287.718 902.027 275.521 896.597 267.31 890.709C253.597 880.875 245.958 868.122 243.244 851.57Z"/>
	<path fill="#950026" d="M724.263 851.505C743.233 851.602 762.3 851.149 781.254 851.612C779.114 867.903 772.316 881.372 759.095 891.561C740.4 905.968 716.298 902.86 694.188 902.717C685.652 902.662 676.311 903.523 667.869 902.577C679.595 898.225 691.142 895.033 701.495 887.602C713.655 878.876 721.849 866.341 724.263 851.505Z"/>
	<path fill="#EBF2FA" d="M326.275 582.435C327.176 586.438 327.711 590.543 328.57 594.568C317.815 607.945 309.054 622.351 305.189 639.269C302.318 651.836 302.943 664.966 303.025 677.766L303.18 713.609L302.936 838.03L288.478 838.053L288.342 720.737L288.214 678.701C288.218 667.934 287.846 656.946 289.429 646.271C293.266 620.412 305.148 598.147 326.275 582.435Z"/>
	<path fill="#CEC8D5" d="M698.701 582.194C719.47 600.096 734.161 629.433 736.157 656.761C736.721 664.475 736.442 672.336 736.43 680.071L736.45 715.746Q736.067 776.824 736.951 837.897L693.02 837.917C684.462 837.945 675.781 838.244 667.235 837.873C673.92 836.58 696.496 837.464 704.902 837.459C703.94 798.52 704.631 759.495 704.768 720.547L704.9 686.181C704.956 669.882 705.4 653.884 700.961 638.011C698.27 628.387 694.038 618.687 688.746 610.207C685.727 605.37 682.152 600.647 679.571 595.571C679.503 595.438 679.438 595.304 679.372 595.17C683.132 596.724 687.072 597.876 691.086 596.355C694.044 595.234 696.068 592.864 697.288 590.004C698.289 587.655 698.407 584.719 698.701 582.194Z"/>
	<path fill="#950026" d="M509.499 442.531C534.354 450.051 558.274 454.089 584.219 454.742C618.247 481.932 651.085 493.086 693.93 497.323Q688.459 538.921 683.607 580.595C667.149 572.862 650.524 565.488 633.174 559.96C629.009 558.633 624.576 557.017 620.281 556.281C622.174 550.435 622.618 543.409 623.498 537.302L628.689 501.13C619.077 494.514 609.456 487.918 598.912 482.848Q596.518 481.675 594.089 480.577Q591.66 479.479 589.198 478.456Q586.737 477.433 584.245 476.486Q581.753 475.539 579.233 474.669Q576.713 473.799 574.168 473.008Q571.623 472.216 569.054 471.503Q566.486 470.789 563.896 470.156Q561.307 469.522 558.699 468.968Q556.092 468.414 553.469 467.94Q550.845 467.467 548.209 467.075Q545.572 466.682 542.924 466.371Q540.277 466.06 537.621 465.83Q534.965 465.6 532.304 465.452Q529.642 465.305 526.977 465.239Q524.312 465.173 521.647 465.189Q518.981 465.205 516.317 465.303C504.241 465.787 492.22 467.34 480.139 467.749C469.987 468.092 453.078 466.597 444.134 470.697C438.15 473.44 433.153 478.092 428.168 482.292C417.271 491.475 407.359 498.988 393.826 504.071C379.311 509.521 364.04 512.597 348.774 515.089C343.695 515.918 337.25 515.641 332.433 517.315L332.188 518.861C331.04 511.281 330.151 503.666 328.986 496.086C357.057 493.841 385.492 487.059 410.073 472.909C421.482 466.342 432.23 458.227 442.821 450.434C459.46 450.148 475.664 448.45 492.089 445.802C497.848 444.873 503.879 444.116 509.499 442.531Z"/>
	<path fill="#EBF2FA" d="M332.188 518.861L332.433 517.315C337.25 515.641 343.695 515.918 348.774 515.089C364.04 512.597 379.311 509.521 393.826 504.071C407.359 498.988 417.271 491.475 428.168 482.292C433.153 478.092 438.15 473.44 444.134 470.697C453.078 466.597 469.987 468.092 480.139 467.749C492.22 467.34 504.241 465.787 516.317 465.303Q518.981 465.205 521.647 465.189Q524.312 465.173 526.977 465.239Q529.642 465.305 532.304 465.452Q534.965 465.6 537.621 465.83Q540.277 466.06 542.924 466.371Q545.572 466.682 548.209 467.075Q550.845 467.467 553.469 467.94Q556.092 468.414 558.699 468.968Q561.307 469.522 563.896 470.156Q566.486 470.789 569.054 471.503Q571.623 472.216 574.168 473.008Q576.713 473.799 579.233 474.669Q581.753 475.539 584.245 476.486Q586.737 477.433 589.198 478.456Q591.66 479.479 594.089 480.577Q596.518 481.675 598.912 482.848C609.456 487.918 619.077 494.514 628.689 501.13L623.498 537.302C622.618 543.409 622.174 550.435 620.281 556.281C611.948 553.968 603.616 551.473 595.163 549.637C579.183 546.166 562.988 544.066 546.72 542.502C475.072 535.613 404.325 546.243 340.736 580.88C337.079 560.408 334.918 539.484 332.188 518.861Z"/>
	<path fill="#CEC8D5" d="M250.532 851.505L724.263 851.505C721.849 866.341 713.655 878.876 701.495 887.602C691.142 895.033 679.595 898.225 667.869 902.577C656.357 903.316 644.705 902.969 633.17 903.012L573.732 903.206L383.896 903.066L329.29 903.072C322.508 903.098 303.204 904.192 297.897 902.619C297.063 901.325 285.774 897.637 283.316 896.377Q280.913 895.15 278.61 893.743Q276.307 892.337 274.117 890.76Q271.927 889.183 269.864 887.444Q267.8 885.705 265.875 883.814C257.496 875.471 250.583 863.579 250.532 851.505Z"/>
	<path fill="#950026" d="M719.901 222.906Q721.419 223.058 722.933 223.248Q724.447 223.437 725.956 223.663Q727.465 223.89 728.968 224.153Q730.471 224.416 731.967 224.716Q733.464 225.016 734.952 225.352Q736.44 225.688 737.92 226.061Q739.4 226.434 740.87 226.843Q742.34 227.252 743.799 227.696Q745.259 228.141 746.707 228.621Q748.156 229.101 749.592 229.617Q751.028 230.132 752.451 230.683Q753.874 231.233 755.283 231.818Q756.693 232.404 758.087 233.023Q759.482 233.643 760.86 234.296Q762.239 234.949 763.602 235.636Q764.964 236.323 766.31 237.043Q767.655 237.763 768.982 238.516Q770.309 239.269 771.618 240.054Q772.926 240.839 774.215 241.656Q775.504 242.473 776.772 243.321Q778.041 244.169 779.288 245.048Q780.536 245.927 781.761 246.836Q782.987 247.745 784.189 248.684Q785.392 249.622 786.572 250.59Q787.751 251.558 788.907 252.555Q790.062 253.552 791.193 254.576Q792.324 255.601 793.429 256.653Q794.535 257.704 795.614 258.783Q796.693 259.862 797.746 260.966Q798.798 262.071 799.823 263.201Q800.849 264.331 801.846 265.486Q802.843 266.641 803.812 267.82C827.521 296.166 837.495 329.785 834.146 366.48C830.962 401.368 813.27 432.238 786.376 454.358C758.667 477.149 720.428 484.852 685.359 481.248C658.909 478.529 631.303 468.667 608.835 454.424C601.201 449.585 594.224 443.722 586.571 438.972C567.916 441.36 547.015 437.477 528.928 432.575C522.199 430.751 515.535 428.326 508.739 426.829C484.675 433.188 460.402 434.748 435.652 435.179C428.738 440.92 422.464 446.916 414.983 452.006C383.85 473.188 343.51 484.142 305.868 480.514C272.22 477.27 238.175 460.668 216.71 434.264C206.698 421.949 194.912 401.807 192.343 386.009C194.143 388.377 195.396 391.501 196.883 394.107Q201.007 401.391 206.211 407.947C227.228 434.231 262.589 442.161 294.375 445.639C350.535 451.783 390.238 438.636 433.893 403.499Q438.3 403.623 442.707 403.483C463.078 402.695 487.037 396.813 501.233 381.348C517.173 393.695 542.886 402.104 562.684 404.14C571.118 405.007 579.556 404.659 588.01 404.389C612.588 419.033 646.895 424.851 675.374 423.152C707.623 421.228 743.627 411.372 765.512 386.432C784.863 364.379 800.135 338.194 797.923 307.751C797.184 297.573 793.836 287.838 789.253 278.779C777.517 255.582 760.547 241.183 737.34 230.115C734.186 228.611 721.889 224.953 720.401 223.46C720.226 223.284 720.068 223.09 719.901 222.906Z"/>
	<path fill="#950026" d="M804.739 371.947C804.66 384.204 800.2 397.635 793.056 407.559C778.807 427.353 758.441 436.206 735.056 439.909C735.823 438.659 743.746 436.691 745.73 435.878C775.604 423.633 792.718 401.015 804.739 371.947Z"/>
	<path fill="#AC0741" d="M328.57 594.568C329.97 596.485 331.515 598.319 333.979 598.776C335.363 599.033 336.775 598.789 338.089 598.327C342.078 596.926 345.926 594.258 349.6 592.156C355.362 588.861 361.388 585.575 367.488 582.955C383.741 575.974 400.294 569.836 417.445 565.445C434.039 561.196 450.7 558.707 467.728 556.96Q473.283 556.342 478.853 555.886Q484.424 555.431 490.005 555.138Q495.586 554.846 501.174 554.716Q506.761 554.587 512.35 554.622Q517.939 554.656 523.525 554.854Q529.11 555.051 534.688 555.412Q540.265 555.773 545.829 556.297Q551.394 556.821 556.941 557.508Q562.487 558.194 568.011 559.043Q573.536 559.891 579.033 560.9Q584.53 561.91 589.995 563.08Q595.46 564.25 600.889 565.579Q606.318 566.908 611.705 568.396Q617.093 569.883 622.434 571.527Q627.776 573.172 633.067 574.971Q638.359 576.771 643.595 578.725C652.362 582.037 672.499 589.776 679.372 595.17C679.438 595.304 679.503 595.438 679.571 595.571C682.152 600.647 685.727 605.37 688.746 610.207C694.038 618.687 698.27 628.387 700.961 638.011C705.4 653.884 704.956 669.882 704.9 686.181L704.768 720.547C704.631 759.495 703.94 798.52 704.902 837.459C696.496 837.464 673.92 836.58 667.235 837.873L302.936 838.03L303.18 713.609L303.025 677.766C302.943 664.966 302.318 651.836 305.189 639.269C309.054 622.351 317.815 607.945 328.57 594.568Z"/>
	<path fill="#950026" d="M519.077 586.248C519.73 586.607 519.729 586.582 520.434 587.113C526.755 591.877 535.993 603.358 541.539 609.513C566.54 637.263 634.064 715.693 640.022 751.05C636.066 747.917 632.679 742.29 629.433 738.328Q615.111 721.173 601.466 703.475C586.275 683.407 572.037 662.71 557.249 642.359Q543.225 623.447 530.279 603.78C526.487 598.124 521.988 592.388 519.077 586.248Z"/>
	<path fill="#950026" d="M345.205 638.824C350.981 643.032 361.94 656.026 367.272 662.079Q387.639 684.825 406.454 708.87Q425.269 732.915 442.45 758.153C450.7 770.367 458.959 782.186 465.128 795.629C458.531 792.825 452.568 787.142 447.665 782.043C435.158 769.034 424.265 754.453 413.472 740.028Q390.121 709.215 368.803 676.963C361.24 665.677 350.51 651.154 345.205 638.824Z"/>
	<path fill="#950026" d="M421.636 595.77C421.782 595.847 421.934 595.913 422.074 596C426.056 598.492 436.186 610.815 440.017 614.956C447.856 623.428 455.155 632.249 462.685 640.982C470.239 649.743 477.999 658.351 485.16 667.44C491.408 675.372 497.152 683.708 503.259 691.751C524.069 719.163 553.147 756.924 563.325 789.712C559.676 787.41 556.008 781.656 553.195 778.26C523.93 742.939 497.527 705.382 470.637 668.247Q454.462 646.352 439.323 623.729C433.181 614.724 426.399 605.606 421.636 595.77Z"/>
	<path fill="#EBF2FA" d="M375.79 330.263C372.652 322.746 369.713 315.276 367.555 307.403Q367.071 305.682 366.629 303.95Q366.188 302.218 365.789 300.475Q365.39 298.733 365.034 296.981Q364.678 295.229 364.366 293.469Q364.053 291.709 363.784 289.942Q363.515 288.175 363.289 286.402Q363.063 284.628 362.881 282.85Q362.699 281.072 362.561 279.29Q362.423 277.507 362.329 275.722Q362.235 273.937 362.185 272.15Q362.134 270.364 362.128 268.576Q362.122 266.788 362.159 265.001Q362.197 263.214 362.279 261.428Q362.36 259.643 362.486 257.86Q362.612 256.076 362.781 254.297Q362.951 252.517 363.164 250.743Q363.377 248.968 363.634 247.199Q363.891 245.43 364.191 243.668Q364.491 241.905 364.835 240.151Q365.178 238.397 365.565 236.652Q365.951 234.906 366.381 233.171Q366.81 231.436 367.282 229.712Q367.754 227.988 368.269 226.276Q368.783 224.564 369.339 222.865Q369.896 221.166 370.493 219.482Q371.091 217.797 371.731 216.128Q372.37 214.458 373.05 212.805Q373.73 211.152 374.45 209.516Q375.171 207.88 375.932 206.262Q376.692 204.645 377.492 203.046Q378.293 201.448 379.132 199.869Q379.971 198.291 380.849 196.734Q381.792 195.107 382.774 193.504Q383.756 191.901 384.776 190.322Q385.797 188.743 386.856 187.19Q387.915 185.636 389.012 184.109Q390.108 182.582 391.242 181.082Q392.375 179.582 393.545 178.11Q394.715 176.638 395.92 175.195Q397.125 173.752 398.365 172.338Q399.605 170.925 400.879 169.543Q402.153 168.16 403.461 166.809Q404.768 165.458 406.108 164.139Q407.448 162.82 408.82 161.535Q410.192 160.249 411.594 158.997Q412.997 157.745 414.43 156.527Q415.862 155.31 417.324 154.128Q418.786 152.946 420.277 151.8Q421.767 150.654 423.285 149.544Q424.803 148.435 426.347 147.363Q427.892 146.291 429.462 145.257Q431.032 144.222 432.627 143.227Q434.222 142.231 435.841 141.275Q437.459 140.319 439.101 139.402Q440.742 138.485 442.406 137.609Q444.069 136.733 445.753 135.897Q447.438 135.062 449.142 134.267Q450.846 133.473 452.569 132.721Q454.292 131.968 456.033 131.258Q457.773 130.548 459.531 129.88Q461.289 129.212 463.062 128.588Q464.835 127.963 466.623 127.382Q468.411 126.801 470.213 126.264Q472.015 125.726 473.829 125.233C501.933 117.687 546.256 118.059 571.561 132.583C606.359 146.081 635.998 175.835 651.016 209.88C662.699 236.364 666.194 268.222 660.273 296.493C658.356 305.647 654.729 314.403 652.904 323.497C657.937 316.586 661.273 308.011 663.868 299.924C672.041 274.449 672.108 252.821 669.34 226.513C688.525 222.157 700.226 221.481 719.901 222.906C720.068 223.09 720.226 223.284 720.401 223.46C721.889 224.953 734.186 228.611 737.34 230.115C760.547 241.183 777.517 255.582 789.253 278.779C793.836 287.838 797.184 297.573 797.923 307.751C800.135 338.194 784.863 364.379 765.512 386.432C743.627 411.372 707.623 421.228 675.374 423.152C646.895 424.851 612.588 419.033 588.01 404.389C579.556 404.659 571.118 405.007 562.684 404.14C542.886 402.104 517.173 393.695 501.233 381.348C487.037 396.813 463.078 402.695 442.707 403.483Q438.3 403.623 433.893 403.499C390.238 438.636 350.535 451.783 294.375 445.639C262.589 442.161 227.228 434.231 206.211 407.947Q201.007 401.391 196.883 394.107C195.396 391.501 194.143 388.377 192.343 386.009C185.655 364.025 186.937 338.993 193.114 317.011C202.705 282.881 226.631 254.687 257.469 237.606C286.46 221.548 323.015 217.271 354.934 226.365C348.698 266.056 352.575 296.478 375.79 330.263Z"/>
	<path fill="#950026" d="M306.496 255.709C308.825 255.6 311.205 255.793 313.537 255.876C289.618 263.059 271.254 270.515 253.231 288.56C247.628 294.169 242.494 300.026 238.248 306.742L234.275 312.484C237.545 301.717 242.326 291.552 249.671 282.931C264.326 265.73 284.31 257.359 306.496 255.709Z"/>
	<path fill="#950026" d="M694.506 255.467C711.078 254.241 728.402 256.873 743.447 264.03C763.326 273.487 778.017 289.222 787.107 309.206C789.891 315.327 791.979 321.852 794.235 328.184C790.42 323.72 787.681 317.018 784.547 311.954C769.406 287.493 744.572 270.317 717.57 261.368C709.972 258.851 702.263 257.33 694.506 255.467Z"/>
	<path fill="#950026" d="M221.058 361.385C223.632 368.017 225.813 374.755 228.819 381.22C240.052 405.383 258.202 422.725 282.135 434.187C288.647 437.306 296.534 439.051 302.202 441.862C302.497 442.009 302.788 442.163 303.082 442.313C281.081 441.688 261.313 433.569 245.182 418.581C228.297 402.891 221.87 383.957 221.058 361.385Z"/>
	<path fill="#950026" d="M460.965 165.005C481.403 155.122 501.985 152.036 524.53 155.798C557.537 161.306 585.12 180.564 604.408 207.382C617.156 228.295 622.272 242.062 625.77 266.343C622.263 258.981 620.32 250.885 616.971 243.424C613.673 236.307 610.339 228.844 606.203 222.176C596.214 206.071 578.481 189.262 562.393 179.618Q560.981 178.776 559.549 177.97Q558.117 177.163 556.666 176.392Q555.214 175.621 553.744 174.886Q552.274 174.151 550.787 173.452Q549.299 172.754 547.794 172.092Q546.29 171.43 544.77 170.806Q543.249 170.181 541.714 169.595Q540.179 169.008 538.629 168.459Q537.08 167.911 535.518 167.4Q533.955 166.89 532.381 166.418Q530.806 165.947 529.221 165.514Q527.635 165.081 526.039 164.688Q524.444 164.295 522.839 163.941Q521.234 163.587 519.62 163.272Q518.007 162.958 516.387 162.684Q514.766 162.409 513.139 162.175Q511.513 161.94 509.881 161.746Q508.248 161.552 506.612 161.398Q504.976 161.244 503.336 161.131Q501.696 161.017 500.055 160.944Q498.413 160.871 496.769 160.839Q495.126 160.806 493.483 160.814Q491.839 160.822 490.196 160.871Q488.553 160.919 486.912 161.008Q485.271 161.097 483.633 161.227Q481.994 161.356 480.359 161.526Q478.724 161.696 477.094 161.906Q475.464 162.116 473.84 162.366Q472.216 162.616 470.598 162.907Q468.98 163.197 467.37 163.527Q465.76 163.857 464.158 164.226Q462.557 164.596 460.965 165.005Z"/>
	<path fill="#950026" d="M571.561 132.583C606.359 146.081 635.998 175.835 651.016 209.88C662.699 236.364 666.194 268.222 660.273 296.493C658.356 305.647 654.729 314.403 652.904 323.497C651.834 326.839 634.772 349.362 631.485 352.815C628.366 356.091 625.902 357.634 621.259 357.621C617.022 357.61 613.291 356.516 610.285 353.442C607.906 351.009 606.677 347.815 606.759 344.395C606.878 339.456 612.693 329.601 614.456 324.072Q618.39 311.603 620.268 298.664C622.103 285.988 622.363 272.138 620.248 259.486C619.358 254.158 616.967 248.827 616.971 243.424C620.32 250.885 622.263 258.981 625.77 266.343C622.272 242.062 617.156 228.295 604.408 207.382L604.765 206.405C604.35 202.65 603.29 198.968 602.379 195.306C597.682 176.447 589.392 160.604 579.367 144.13C577.041 140.307 573.855 136.958 571.789 133.031C571.711 132.883 571.637 132.732 571.561 132.583Z"/>
</svg>
